HIERARCHY
ROOT Hips
{
	OFFSET 0.000000 0.000000 0.000000
	CHANNELS 6 Xposition Yposition Zposition Zrotation Yrotation Xrotation 
	JOINT LHipJoint
	{
		OFFSET 0.000000 0.000000 0.000000
		CHANNELS 3 Zrotation Yrotation Xrotation
		JOINT LeftUpLeg
		{
			OFFSET 1.363060 -1.794630 0.839290
			CHANNELS 3 Zrotation Yrotation Xrotation
			JOINT LeftLeg
			{
				OFFSET 2.448110 -6.726130 0.000000
				CHANNELS 3 Zrotation Yrotation Xrotation
				JOINT LeftFoot
				{
					OFFSET 2.562200 -7.039590 0.000000
					CHANNELS 3 Zrotation Yrotation Xrotation
					JOINT LeftToeBase
					{
						OFFSET 0.157640 -0.433110 2.322550
						CHANNELS 3 Zrotation Yrotation Xrotation
						End Site
						{
							OFFSET 0.000000 0.000000 0.000000
						}
					}
				}
			}
		}
	}
	JOINT RHipJoint
	{
		OFFSET 0.000000 0.000000 0.000000
		CHANNELS 3 Zrotation Yrotation Xrotation
		JOINT RightUpLeg
		{
			OFFSET -1.305520 -1.794630 0.839290
			CHANNELS 3 Zrotation Yrotation Xrotation
			JOINT RightLeg
			{
				OFFSET -2.542530 -6.985550 0.000000
				CHANNELS 3 Zrotation Yrotation Xrotation
				JOINT RightFoot
				{
					OFFSET -2.568260 -7.056230 0.000000
					CHANNELS 3 Zrotation Yrotation Xrotation
					JOINT RightToeBase
					{
						OFFSET -0.164730 -0.452590 2.363150
						CHANNELS 3 Zrotation Yrotation Xrotation
						End Site
						{
							OFFSET 0.000000 0.000000 0.000000
						}
					}
				}
			}
		}
	}
}
MOTION
Frames: 19
Frame Time: 0.008333
4.449707 17.358999 1.513386 20.184936 -80.814190 4.295542 -10.190775 0.325630 -0.147051 -12.142653 2.435071 -23.048441 -2.794424 -1.570081 -5.245691 0.615848 6.754518 5.414400 2.071100 0.000000 -36.345700 10.196133 1.155972 -1.640502 -0.728518 -9.076064 -20.271650 1.630596 1.118258 -2.167772 -1.862324 -11.734771 7.232330 -4.097401 0.000000 -64.189900
4.444513 17.361826 1.506387 18.431894 -79.302456 5.794020 -10.234958 0.321384 0.076709 -11.923178 1.617619 -22.891247 -2.772790 -1.549109 -5.143174 0.546185 6.337542 5.692967 2.006000 -0.000001 -36.571000 10.167853 1.084184 -1.793239 -0.604595 -9.876641 -19.596377 1.608333 1.127432 -2.297737 -1.987714 -12.427831 7.118425 -4.286200 -0.000000 -63.917400
4.438677 17.364898 1.498345 17.105762 -77.814707 6.835156 -10.265280 0.324938 0.299774 -11.719128 0.836507 -22.706666 -2.755755 -1.529522 -5.041807 0.479307 5.927677 5.972600 1.938200 0.000000 -36.778099 10.154405 1.005122 -1.924202 -0.501769 -10.635286 -18.899551 1.579083 1.135012 -2.440460 -2.114604 -13.131561 7.024805 -4.481200 0.000000 -63.643001
4.432339 17.368148 1.489325 16.077520 -76.366264 7.548118 -10.283424 0.336883 0.522122 -11.529361 0.086819 -22.491809 -2.741571 -1.510557 -4.944232 0.416643 5.535661 6.250924 1.870200 0.000000 -36.966800 10.153678 0.921402 -2.035120 -0.422454 -11.345535 -18.183566 1.542979 1.141226 -2.588968 -2.242487 -13.843803 6.947284 -4.681699 0.000000 -63.369100
4.425627 17.371601 1.479276 15.268059 -74.967619 8.013951 -10.290801 0.357044 0.742471 -11.354868 -0.633945 -22.244605 -2.729337 -1.491828 -4.854717 0.359430 5.167334 6.528185 1.803500 0.000000 -37.134300 10.163930 0.835395 -2.128241 -0.368971 -12.003274 -17.450588 1.500039 1.146096 -2.738669 -2.370998 -14.562772 6.883403 -4.887399 0.000000 -63.097700
4.418483 17.375276 1.468216 14.625391 -73.625401 8.290207 -10.288770 0.384637 0.959660 -11.195728 -1.329106 -21.966089 -2.718386 -1.473147 -4.777028 0.308190 4.827232 6.806197 1.739600 -0.000000 -37.279000 10.183437 0.748996 -2.205444 -0.341932 -12.605113 -16.704572 1.450287 1.149823 -2.888005 -2.500216 -15.288948 6.832087 -5.099000 0.000001 -62.829800
4.410827 17.379206 1.456061 14.117512 -72.341192 8.415744 -10.278518 0.418227 1.172345 -11.052873 -2.003000 -21.658313 -2.708555 -1.454623 -4.715046 0.263156 4.517449 7.088152 1.679500 0.000000 -37.399400 10.210646 0.663927 -2.269417 -0.340806 -13.153058 -15.951211 1.394234 1.152408 -3.036068 -2.629797 -16.019629 6.791566 -5.315600 0.000000 -62.565500
4.402528 17.383328 1.442766 13.723949 -71.111569 8.419942 -10.261245 0.455747 1.379399 -10.927649 -2.661277 -21.325145 -2.700112 -1.436722 -4.672640 0.224068 4.237927 7.377239 1.623800 -0.000000 -37.493300 10.244130 0.581717 -2.323578 -0.365280 -13.655193 -15.197297 1.332851 1.153668 -3.181707 -2.759093 -16.749366 6.757912 -5.535000 0.000001 -62.304300
4.393429 17.387688 1.428258 13.427042 -69.930141 8.328579 -10.238115 0.495109 1.580401 -10.820783 -3.308911 -20.973106 -2.693526 -1.419856 -4.652201 0.190335 3.986337 7.678152 1.572501 -0.000000 -37.560200 10.282531 0.503108 -2.370489 -0.412144 -14.120746 -14.450145 1.267371 1.153844 -3.328733 -2.887491 -17.474310 6.731171 -5.756100 -0.000000 -62.045000
4.383090 17.392378 1.412642 13.210151 -68.788389 8.167593 -10.210301 0.534353 1.775685 -10.730569 -3.949897 -20.610202 -2.689276 -1.404396 -4.651743 0.160689 3.758573 7.992412 1.525599 0.000000 -37.601500 10.324887 0.427306 -2.411716 -0.476414 -14.559863 -13.713368 1.199147 1.153532 -3.486661 -3.014309 -18.192158 6.715643 -5.979900 0.000001 -61.784300
4.371506 17.396937 1.395666 13.078007 -67.669527 7.944072 -10.178566 0.571209 1.966644 -10.662337 -4.595314 -20.241992 -2.688967 -1.391909 -4.682548 0.134858 3.548580 8.327225 1.481201 0.000000 -37.612500 10.370332 0.357118 -2.453504 -0.559357 -15.004704 -13.004455 1.131646 1.151917 -3.644207 -3.136318 -18.878759 6.694007 -6.192700 -0.000000 -61.528801
4.358207 17.401689 1.377738 13.002646 -66.566303 7.689100 -10.144143 0.604399 2.154443 -10.608756 -5.243932 -19.878823 -2.692404 -1.381831 -4.732635 0.110770 3.349959 8.679152 1.438899 -0.000000 -37.601200 10.418191 0.288983 -2.494934 -0.650884 -15.460145 -12.317828 1.066014 1.150528 -3.823745 -3.253174 -19.539880 6.684234 -6.401900 0.000000 -61.271700
4.343106 17.406401 1.358928 12.976782 -65.466256 7.415917 -10.107881 0.632674 2.340948 -10.569083 -5.900388 -19.527772 -2.700289 -1.374631 -4.802277 0.087287 3.155517 9.048780 1.396601 -0.000000 -37.568600 10.467863 0.222918 -2.539396 -0.747798 -15.949307 -11.660409 1.005145 1.149505 -4.026211 -3.362241 -20.161145 6.683076 -6.601500 -0.000000 -61.017100
4.326297 17.411011 1.339624 12.984391 -64.360836 7.142047 -10.071078 0.654948 2.527381 -10.539792 -6.564905 -19.195905 -2.712733 -1.370237 -4.889116 0.063167 2.957025 9.434505 1.352300 -0.000000 -37.520000 10.518252 0.158179 -2.589497 -0.844573 -16.489395 -11.035681 0.951754 1.149288 -4.256221 -3.461128 -20.732375 6.693565 -6.788600 -0.000001 -60.768500
4.307712 17.415491 1.320146 13.013480 -63.244890 6.881245 -10.034589 0.670825 2.714991 -10.515792 -7.237643 -18.889570 -2.729334 -1.368161 -4.984674 0.037361 2.750505 9.829726 1.305000 0.000000 -37.459700 10.568712 0.093421 -2.646819 -0.936234 -17.091890 -10.443460 0.907862 1.150253 -4.518224 -3.547843 -21.246334 6.721057 -6.962400 0.000000 -60.529800
4.287616 17.419768 1.300994 13.049747 -62.118036 6.647031 -9.999651 0.680221 2.904166 -10.492401 -7.914801 -18.614235 -2.749467 -1.367825 -5.084062 0.008928 2.531073 10.228845 1.253100 -0.000000 -37.392700 10.618012 0.028001 -2.713059 -1.017712 -17.764714 -9.885569 0.875551 1.152687 -4.812604 -3.620375 -21.695565 6.770396 -7.121600 0.000000 -60.307100
4.266496 17.423875 1.282636 13.079185 -60.985476 6.448338 -9.967054 0.683478 3.094539 -10.464040 -8.592399 -18.375652 -2.771661 -1.367866 -5.173436 -0.022430 2.299577 10.620067 1.196800 0.000000 -37.323400 10.665013 -0.038597 -2.789304 -1.085016 -18.508108 -9.361020 0.856150 1.156610 -5.136998 -3.677195 -22.074881 6.846513 -7.266200 0.000000 -60.105800
4.244667 17.427828 1.265617 13.091383 -59.857687 6.295272 -9.934236 0.681257 3.281986 -10.433258 -9.264718 -18.311633 -2.790969 -1.351641 -4.975567 -0.061845 2.046659 10.841941 1.134001 -0.000000 -37.256000 10.708562 -0.106673 -2.872966 -1.132410 -19.313518 -8.875175 0.850474 1.162985 -5.485377 -3.717625 -22.383745 6.953033 -7.397500 0.000000 -59.932000
4.223049 17.431686 1.250324 13.074140 -58.748073 6.191480 -9.905728 0.675809 3.469611 -10.387332 -9.920267 -18.269317 -2.809349 -1.336499 -4.799404 -0.101413 1.785587 11.064055 1.067100 0.000000 -37.194300 10.747721 -0.175823 -2.964910 -1.157690 -20.167587 -8.426341 0.858379 1.170953 -5.849309 -3.741874 -22.622901 7.092275 -7.516500 0.000000 -59.791299
